<?xml version="1.0" standalone="no"?>
<!DOCTYPE svg PUBLIC "-//W3C//DTD SVG 20010904//EN"
 "http://www.w3.org/TR/2001/REC-SVG-20010904/DTD/svg10.dtd">
<svg version="1.0" xmlns="http://www.w3.org/2000/svg"
 width="612.000000pt" height="612.000000pt" viewBox="0 0 612.000000 612.000000"
 preserveAspectRatio="xMidYMid meet">
<metadata>
Created by potrace 1.11, written by Peter Selinger 2001-2013
</metadata>
<g transform="translate(0.000000,612.000000) scale(0.100000,-0.100000)"
fill="#000000" stroke="none">
<path d="M581 5614 l-31 -26 0 -164 0 -164 193 0 194 0 2 141 c3 230 -4 239
-198 239 -125 0 -131 -1 -160 -26z"/>
<path d="M1157 5612 l-27 -28 0 -162 0 -162 194 0 194 0 1 144 c2 155 -9 204
-47 225 -12 6 -78 11 -154 11 -134 0 -134 0 -161 -28z"/>
<path d="M1737 5615 l-27 -26 0 -164 0 -165 189 0 c223 0 198 -25 191 193 -6
193 0 186 -190 187 -131 0 -136 -1 -163 -25z"/>
<path d="M2315 5614 c-24 -26 -25 -31 -25 -191 l0 -163 193 2 192 3 3 130 c4
154 -1 189 -33 221 -23 23 -30 24 -165 24 -140 0 -141 0 -165 -26z"/>
<path d="M2910 5623 c-14 -9 -28 -22 -32 -27 -4 -6 -8 -84 -8 -173 l0 -163
189 0 c167 0 190 2 193 16 2 9 1 86 -2 171 -6 199 0 192 -185 193 -106 0 -135
-3 -155 -17z"/>
<path d="M3480 5619 c-24 -21 -25 -25 -30 -190 l-5 -169 195 0 195 0 -5 169
c-6 219 1 210 -190 210 -122 0 -137 -2 -160 -20z"/>
<path d="M4056 5615 l-26 -24 0 -166 0 -165 190 0 190 0 0 163 c0 89 -4 167
-8 173 -26 37 -56 44 -188 44 -125 0 -132 -1 -158 -25z"/>
<path d="M4635 5616 c-32 -32 -38 -70 -33 -223 l3 -128 193 -3 192 -2 0 163
c0 160 -1 165 -25 191 -24 26 -25 26 -165 26 -135 0 -142 -1 -165 -24z"/>
<path d="M5217 5615 c-27 -26 -27 -27 -28 -165 -1 -77 -2 -150 -2 -162 l-1
-23 192 -3 192 -2 0 164 0 165 -27 26 c-27 24 -32 25 -163 25 -131 0 -136 -1
-163 -25z"/>
<path d="M432 5060 c-29 -12 -55 -73 -47 -110 3 -15 17 -38 31 -51 l26 -24
2609 -3 c2889 -2 2656 -8 2679 63 14 43 -1 97 -33 120 -19 13 -325 15 -2632
14 -1565 0 -2619 -4 -2633 -9z"/>
<path d="M550 2612 l0 -2078 28 -27 c28 -27 30 -27 164 -27 131 0 136 1 161
25 13 14 27 38 30 53 3 15 5 950 4 2077 l-2 2050 -192 3 -193 2 0 -2078z"/>
<path d="M1130 2866 l0 -1824 31 -26 c30 -25 35 -26 165 -26 129 0 136 1 159
24 14 14 26 41 30 67 3 24 4 845 3 1824 l-3 1780 -192 3 -193 2 0 -1824z"/>
<path d="M1710 3247 l0 -1444 26 -24 c25 -23 31 -24 165 -24 135 0 139 1 163
25 15 15 25 39 27 60 1 19 1 668 0 1443 l-1 1407 -190 0 -190 0 0 -1443z"/>
<path d="M2290 3506 l0 -1185 24 -28 c24 -28 26 -28 153 -31 145 -3 168 4 196
58 16 33 17 107 15 1200 l-3 1165 -192 3 -193 2 0 -1184z"/>
<path d="M2870 3757 l0 -934 26 -24 c25 -23 31 -24 166 -24 l140 0 24 28 24
28 0 930 0 929 -190 0 -190 0 0 -933z"/>
<path d="M3450 4014 l0 -676 29 -29 29 -29 129 0 c141 0 165 8 187 60 8 20 10
208 8 689 l-2 661 -190 0 -190 0 0 -676z"/>
<path d="M4030 4140 l0 -551 25 -24 c23 -24 29 -25 165 -25 136 0 142 1 165
25 l25 24 0 551 0 550 -190 0 -190 0 0 -550z"/>
<path d="M4604 4677 c-3 -8 -4 -197 -2 -421 l3 -408 33 -29 c32 -29 33 -29
161 -29 125 0 131 1 160 26 l31 26 0 424 0 424 -190 0 c-150 0 -192 -3 -196
-13z"/>
<path d="M5190 4395 l0 -296 25 -24 c23 -24 29 -25 165 -25 136 0 142 1 165
25 l25 24 0 296 0 295 -190 0 -190 0 0 -295z"/>
</g>
</svg>
